<svg xmlns="http://www.w3.org/2000/svg" width="364.9264322916667" height="151" viewBox="-25.326432291666666 -111.80000000000001 364.9264322916667 151">
<style>.letter-0 {
  fill: none; stroke: #ffffff; stroke-width: 2;
  stroke-linecap: round; stroke-linejoin: round;
  stroke-dasharray: 564.92; stroke-dashoffset: 564.92;
  animation: anim0 6.15s ease-in-out infinite;
}
@keyframes anim0 {
  0%, 0.00% { stroke-dashoffset: 564.92; }
  24.39% { stroke-dashoffset: 0; }
  50.00% { stroke-dashoffset: 0; }
  74.39% { stroke-dashoffset: 564.92; }
  100% { stroke-dashoffset: 564.92; }
}
.letter-1 {
  fill: none; stroke: #ffffff; stroke-width: 2;
  stroke-linecap: round; stroke-linejoin: round;
  stroke-dasharray: 257.69; stroke-dashoffset: 257.69;
  animation: anim1 6.15s ease-in-out infinite;
}
@keyframes anim1 {
  0%, 3.66% { stroke-dashoffset: 257.69; }
  28.05% { stroke-dashoffset: 0; }
  50.00% { stroke-dashoffset: 0; }
  78.05% { stroke-dashoffset: 257.69; }
  100% { stroke-dashoffset: 257.69; }
}
.letter-2 {
  fill: none; stroke: #ffffff; stroke-width: 2;
  stroke-linecap: round; stroke-linejoin: round;
  stroke-dasharray: 194.63; stroke-dashoffset: 194.63;
  animation: anim2 6.15s ease-in-out infinite;
}
@keyframes anim2 {
  0%, 7.32% { stroke-dashoffset: 194.63; }
  31.71% { stroke-dashoffset: 0; }
  50.00% { stroke-dashoffset: 0; }
  81.71% { stroke-dashoffset: 194.63; }
  100% { stroke-dashoffset: 194.63; }
}
.letter-3 {
  fill: none; stroke: #ffffff; stroke-width: 2;
  stroke-linecap: round; stroke-linejoin: round;
  stroke-dasharray: 209.13; stroke-dashoffset: 209.13;
  animation: anim3 6.15s ease-in-out infinite;
}
@keyframes anim3 {
  0%, 10.98% { stroke-dashoffset: 209.13; }
  35.37% { stroke-dashoffset: 0; }
  50.00% { stroke-dashoffset: 0; }
  85.37% { stroke-dashoffset: 209.13; }
  100% { stroke-dashoffset: 209.13; }
}
.letter-4 {
  fill: none; stroke: #ffffff; stroke-width: 2;
  stroke-linecap: round; stroke-linejoin: round;
  stroke-dasharray: 261.03; stroke-dashoffset: 261.03;
  animation: anim4 6.15s ease-in-out infinite;
}
@keyframes anim4 {
  0%, 14.63% { stroke-dashoffset: 261.03; }
  39.02% { stroke-dashoffset: 0; }
  50.00% { stroke-dashoffset: 0; }
  89.02% { stroke-dashoffset: 261.03; }
  100% { stroke-dashoffset: 261.03; }
}
.letter-5 {
  fill: none; stroke: #ffffff; stroke-width: 2;
  stroke-linecap: round; stroke-linejoin: round;
  stroke-dasharray: 330.86; stroke-dashoffset: 330.86;
  animation: anim5 6.15s ease-in-out infinite;
}
@keyframes anim5 {
  0%, 18.29% { stroke-dashoffset: 330.86; }
  42.68% { stroke-dashoffset: 0; }
  50.00% { stroke-dashoffset: 0; }
  92.68% { stroke-dashoffset: 330.86; }
  100% { stroke-dashoffset: 330.86; }
}
.letter-6 {
  fill: none; stroke: #ffffff; stroke-width: 2;
  stroke-linecap: round; stroke-linejoin: round;
  stroke-dasharray: 209.13; stroke-dashoffset: 209.13;
  animation: anim6 6.15s ease-in-out infinite;
}
@keyframes anim6 {
  0%, 21.95% { stroke-dashoffset: 209.13; }
  46.34% { stroke-dashoffset: 0; }
  50.00% { stroke-dashoffset: 0; }
  96.34% { stroke-dashoffset: 209.13; }
  100% { stroke-dashoffset: 209.13; }
}
.letter-7 {
  fill: none; stroke: #ffffff; stroke-width: 2;
  stroke-linecap: round; stroke-linejoin: round;
  stroke-dasharray: 194.63; stroke-dashoffset: 194.63;
  animation: anim7 6.15s ease-in-out infinite;
}
@keyframes anim7 {
  0%, 25.61% { stroke-dashoffset: 194.63; }
  50.00% { stroke-dashoffset: 0; }
  50.00% { stroke-dashoffset: 0; }
  99.00% { stroke-dashoffset: 194.63; }
  100% { stroke-dashoffset: 194.63; }
}
</style>
<g><path d="M41.30 9.20L41.30 9.20Q31.50 9.20 23.35 6.30Q15.20 3.40 10.20-2.25Q5.20-7.90 4.70-16.20L4.70-16.20Q4.50-19.60 5.80-23.70Q7.10-27.80 9.45-31.85Q11.80-35.90 15.05-39.15Q18.30-42.40 22-44.10L22-44.10Q22.30-44.30 22.95-44.40Q23.60-44.50 23.90-44.50L23.90-44.50Q24.50-44.50 24.50-44.20L24.50-44.20Q24.50-43.70 23-42.60L23-42.60Q18.80-39.30 16.10-35L16.10-35Q13.30-30.70 11.90-25.80Q10.50-20.90 10.50-15.90L10.50-15.90Q10.50-10 13.05-5.75Q15.60-1.50 19.90 1.25Q24.20 4 29.70 5.30Q35.20 6.60 41.20 6.60L41.20 6.60Q47.90 6.60 54.45 5.10Q61 3.60 66.40 0.80L66.40 0.80Q74.70-3.60 79.55-10.10Q84.40-16.60 84.40-23L84.40-23Q84.40-26.40 82.95-29.50Q81.50-32.60 78.30-35.10L78.30-35.10Q75.90-37 72.45-38.70Q69-40.40 65.15-42Q61.30-43.60 57.60-45.25Q53.90-46.90 51.10-48.80L51.10-48.80Q47.10-51.50 45.25-54.60Q43.40-57.70 43.40-60.80L43.40-60.80Q43.40-64.50 45.55-68Q47.70-71.50 51.45-74.35Q55.20-77.20 59.90-78.80L59.90-78.80Q64-80.20 68.85-81Q73.70-81.80 78.40-81.80L78.40-81.80Q82.30-81.80 85.85-81.25Q89.40-80.70 92.10-79.30L92.10-79.30Q95.50-77.70 97.30-75.05Q99.10-72.40 99.10-69.50L99.10-69.50Q99.10-65.50 95.50-62.50L95.50-62.50Q94.20-61.50 92.60-60.65Q91-59.80 88.80-59.20L88.80-59.20Q88.40-59.10 87.90-59.10L87.90-59.10Q86.70-59.10 86.70-59.80L86.70-59.80Q86.70-60.20 87.35-60.65Q88-61.10 89.30-61.20L89.30-61.20Q92.30-61.60 93.85-63.50Q95.40-65.40 95.40-67.90L95.40-67.90Q95.40-70.50 93.65-73.05Q91.90-75.60 88.30-77.35Q84.70-79.10 79.10-79.10L79.10-79.10Q75.90-79.10 72.05-78.40Q68.20-77.70 63.70-76.10L63.70-76.10Q58.20-74.20 54.55-70.50Q50.90-66.80 50.90-62.60L50.90-62.60Q50.90-60 52.65-57.35Q54.40-54.70 58.30-52.30L58.30-52.30Q61.60-50.30 65.80-48.35Q70-46.40 74.30-44.45Q78.60-42.50 82.10-40.30L82.10-40.30Q87.60-36.90 90-33Q92.40-29.10 92.40-25L92.40-25Q92.40-20.20 89.55-15.35Q86.70-10.50 82.10-6.25Q77.50-2 72 1.30L72 1.30Q65.60 5.10 57.55 7.15Q49.50 9.20 41.30 9.20Z" class="letter-0"/></g>
<g><path d="M101.70 0L101.70 0Q100.60 0 99.05-0.50Q97.50-1 96.35-2.35Q95.20-3.70 95.20-6.40L95.20-6.40Q95.20-9 96.90-12.40Q98.60-15.80 99.90-18.40L99.90-18.40Q98.80-18.40 98.80-19.30L98.80-19.30Q98.90-19.60 99.70-21.20Q100.50-22.80 101.60-25Q102.70-27.20 103.75-29.25Q104.80-31.30 105.40-32.40L105.40-32.40Q106.60-34.60 109.20-34.60L109.20-34.60L115.40-34.60Q113.70-33.30 112.35-31.75Q111-30.20 109-26.10L109-26.10Q109-26.10 108.30-24.70Q107.60-23.30 106.55-21.15Q105.50-19 104.45-16.80Q103.40-14.60 102.70-13.10L102.70-13.10Q101.40-10.30 101-8.65Q100.60-7 100.60-5.60L100.60-5.60Q100.60-2.30 102.80-2.30L102.80-2.30Q105.20-2.30 108.60-6.20L108.60-6.20Q111.40-9.50 114.10-14.10Q116.80-18.70 119.25-23.60Q121.70-28.50 123.60-32.40L123.60-32.40Q124.70-34.60 127.50-34.60L127.50-34.60L133-34.60Q130.80-32.80 128.55-29.20Q126.30-25.60 123.60-20L123.60-20Q122.90-18.50 121.80-16.20Q120.70-13.90 119.85-11.30Q119-8.70 119-6.10L119-6.10Q119-2.60 121.50-2.60L121.50-2.60Q124.90-2.60 128.10-7.30Q131.30-12 134.40-19.30L134.40-19.30Q135.20-19.30 135.35-19.20Q135.50-19.10 135.60-18.40L135.60-18.40Q134.50-15.70 132.95-12.55Q131.40-9.40 129.45-6.50Q127.50-3.60 125.15-1.80Q122.80 0 120 0L120 0Q117.50 0 115.90-1.85Q114.30-3.70 114.30-7.10L114.30-7.10Q114.30-9.80 115.30-12.90L115.30-12.90Q113.60-9.90 111.40-6.90Q109.20-3.90 106.70-1.95Q104.20 0 101.70 0Z" class="letter-1"/></g>
<g><path d="M134.50-19.60L134.50-19.60Q135.30-21.30 136.60-25.05Q137.90-28.80 139.30-33.40Q140.70-38 141.40-42.10L141.40-42.10Q141.70-43.70 142.50-44.45Q143.30-45.20 144.20-45.20L144.20-45.20Q145.50-45.20 146.60-43.95Q147.70-42.70 147.70-40.40L147.70-40.40Q147.70-37.60 146.05-35.60Q144.40-33.60 142-31.80L142-31.80Q143-31.70 144.10-31.65Q145.20-31.60 146.50-31.60L146.50-31.60Q151.20-31.60 155.80-32.20L155.80-32.20Q156-31.60 156-31.30L156-31.30Q156-30 155.25-28Q154.50-26 153.70-24.40L153.70-24.40Q153.30-23.50 152.10-21.15Q150.90-18.80 149.50-15.85Q148.10-12.90 147.15-10.05Q146.20-7.20 146.20-5.20L146.20-5.20Q146.20-2.60 148.20-2.60L148.20-2.60Q150.10-2.60 153.50-7.05Q156.90-11.50 160.30-19.30L160.30-19.30Q161.50-19.30 161.50-18.40L161.50-18.40Q160.40-15.70 158.75-12.50Q157.10-9.30 155.10-6.45Q153.10-3.60 150.80-1.75Q148.50 0.10 146 0.10L146 0.10Q144.10 0.10 142.20-1.45Q140.30-3 140.30-6.50L140.30-6.50Q140.30-9.60 141.50-12.55Q142.70-15.50 144.20-18.10Q145.70-20.70 146.90-22.70Q148.10-24.70 148.10-25.90L148.10-25.90Q148.10-27.70 145.85-28.50Q143.60-29.30 140-29.40L140-29.40Q138.20-24.80 137.30-22.60Q136.40-20.40 135.60-18.40L135.60-18.40Q134-18.40 134.50-19.60Z" class="letter-2"/></g>
<g><path d="M167.50 0.40L167.50 0.40Q163.80 0.40 160.85-2Q157.90-4.40 157.90-9.30L157.90-9.30Q157.90-13.40 159.75-18Q161.60-22.60 164.65-26.65Q167.70-30.70 171.45-33.25Q175.20-35.80 179-35.80L179-35.80Q180.90-35.80 182.70-34.70Q184.50-33.60 184.50-30.90L184.50-30.90Q184.50-28.40 182.60-25.40Q180.70-22.40 177.20-19.80L177.20-19.80Q175.70-18.70 173.40-17.70Q171.10-16.70 168.80-16.05Q166.50-15.40 165-15.40L165-15.40Q164.50-14.20 164.05-12.20Q163.60-10.20 163.60-8.10L163.60-8.10Q163.60-5.60 164.60-3.60Q165.60-1.60 168.30-1.60L168.30-1.60Q171.60-1.60 174.45-3.50Q177.30-5.40 179.55-8.30Q181.80-11.20 183.40-14.20Q185-17.20 185.90-19.30L185.90-19.30Q187.10-19.30 187.10-18.40L187.10-18.40Q185.80-15.60 184.15-12.30Q182.50-9 180.25-6.15Q178-3.30 174.85-1.45Q171.70 0.40 167.50 0.40ZM165.70-17.20L165.70-17.20Q167.10-17.20 170.40-18.25Q173.70-19.30 176.40-21.60L176.40-21.60Q179-23.90 180.40-26.65Q181.80-29.40 181.80-31.30L181.80-31.30Q181.80-33.50 180.20-33.50L180.20-33.50Q179-33.50 176.90-31.90Q174.80-30.30 171.70-26.50L171.70-26.50Q169.80-24.10 168.10-21.30Q166.40-18.50 165.70-17.20Z" class="letter-3"/></g>
<g><path d="M176.30 0.80L176.30 0.80Q179.90-6.50 183.20-13.65Q186.50-20.80 190-27.30L190-27.30Q192-30.90 193.40-32.35Q194.80-33.80 197.10-33.80L197.10-33.80Q197.90-33.80 198.80-33.55Q199.70-33.30 200.60-33.30L200.60-33.30Q201.20-33.30 201.50-33.40L201.50-33.40Q200.10-32.60 197.85-29.45Q195.60-26.30 193.30-22.20Q191-18.10 189.20-14.50L189.20-14.50Q191.10-16.80 193.20-19.10Q195.30-21.40 197.80-23.50L197.80-23.50Q200.20-25.60 203.55-27.85Q206.90-30.10 210.10-31.60Q213.30-33.10 215.20-33.10L215.20-33.10Q215.90-33.10 216.20-33L216.20-33Q216.20-33 215.10-31.05Q214-29.10 212.35-25.95Q210.70-22.80 209-19.25Q207.30-15.70 205.95-12.45Q204.60-9.20 204.20-7L204.20-7Q203.90-5.70 203.90-4.60L203.90-4.60Q203.90-3 204.50-2.50Q205.10-2 205.80-2L205.80-2Q207.70-2 209.70-3.70Q211.70-5.40 213.55-8.05Q215.40-10.70 217-13.70Q218.60-16.70 219.70-19.30L219.70-19.30Q220.90-19.30 220.90-18.40L220.90-18.40Q219.80-15.70 218.15-12.45Q216.50-9.20 214.45-6.30Q212.40-3.40 209.90-1.50Q207.40 0.40 204.50 0.40L204.50 0.40Q202.50 0.40 200.35-1Q198.20-2.40 198.20-6.20L198.20-6.20Q198.20-7.30 198.40-8.55Q198.60-9.80 199.10-11.30L199.10-11.30Q199.90-13.30 201-15.60Q202.10-17.90 204.60-21.90L204.60-21.90Q205.30-23 205.45-23.60Q205.60-24.20 205.60-24.60L205.60-24.60Q205.60-25.80 204.50-25.80L204.50-25.80Q203.60-25.80 201.85-24.80Q200.10-23.80 197.50-21.30L197.50-21.30Q195-18.90 191.55-14.50Q188.10-10.10 183.60-1.50L183.60-1.50Q182.90-0.20 182.05-0.10Q181.20 0 179.70 0.10L179.70 0.10Q178.70 0.20 177.80 0.25Q176.90 0.30 176.30 0.80Z" class="letter-4"/></g>
<g><path d="M242.60 0L242.60 0Q239.20 0 237.60-2.30Q236-4.60 236-7.70L236-7.70Q236-8.60 236.10-9.55Q236.20-10.50 236.50-11.50L236.50-11.50Q235.10-9.30 233.25-6.65Q231.40-4 229.05-2.05Q226.70-0.10 223.80-0.10L223.80-0.10Q222.50-0.10 220.85-0.70Q219.20-1.30 217.95-3Q216.70-4.70 216.70-8L216.70-8Q216.70-12.30 218.60-17.10Q220.50-21.90 223.80-26.15Q227.10-30.40 231.30-33.05Q235.50-35.70 240-35.70L240-35.70Q243.60-35.70 246.80-33.80L246.80-33.80Q248.30-36.60 250-40.05Q251.70-43.50 253.40-46.90Q255.10-50.30 256.40-53.15Q257.70-56 258.40-57.50L258.40-57.50Q259.90-61 261.25-61.95Q262.60-62.90 264.50-62.90L264.50-62.90Q265.60-62.90 266.95-62.65Q268.30-62.40 269.60-62.50L269.60-62.50Q269.10-62 267.30-59.20Q265.50-56.40 262.90-51.95Q260.30-47.50 257.35-42.20Q254.40-36.90 251.55-31.35Q248.70-25.80 246.30-20.70Q243.90-15.60 242.50-11.70Q241.10-7.80 241.10-5.80L241.10-5.80Q241.10-4.50 241.70-3.55Q242.30-2.60 243.70-2.60L243.70-2.60Q245.60-2.60 247.60-4.50Q249.60-6.40 251.45-9.25Q253.30-12.10 254.75-14.85Q256.20-17.60 256.90-19.30L256.90-19.30Q258.10-19.30 258.10-18.40L258.10-18.40Q257.20-16.30 255.70-13.20Q254.20-10.10 252.20-7.10Q250.20-4.10 247.75-2.05Q245.30 0 242.60 0ZM224.50-3L224.50-3Q225.90-3 228-4.55Q230.10-6.10 232.50-9.50L232.50-9.50Q235.30-13.50 238.90-19.50Q242.50-25.50 246-32.20L246-32.20Q245.30-32.80 244.50-33.10Q243.70-33.40 242.30-33.40L242.30-33.40Q240-33.40 237.25-31.45Q234.50-29.50 231.75-26.40Q229-23.30 226.75-19.70Q224.50-16.10 223.15-12.75Q221.80-9.40 221.80-7L221.80-7Q221.80-3 224.50-3Z" class="letter-5"/></g>
<g><path d="M264.10 0.40L264.10 0.40Q260.40 0.40 257.45-2Q254.50-4.40 254.50-9.30L254.50-9.30Q254.50-13.40 256.35-18Q258.20-22.60 261.25-26.65Q264.30-30.70 268.05-33.25Q271.80-35.80 275.60-35.80L275.60-35.80Q277.50-35.80 279.30-34.70Q281.10-33.60 281.10-30.90L281.10-30.90Q281.10-28.40 279.20-25.40Q277.30-22.40 273.80-19.80L273.80-19.80Q272.30-18.70 270-17.70Q267.70-16.70 265.40-16.05Q263.10-15.40 261.60-15.40L261.60-15.40Q261.10-14.20 260.65-12.20Q260.20-10.20 260.20-8.10L260.20-8.10Q260.20-5.60 261.20-3.60Q262.20-1.60 264.90-1.60L264.90-1.60Q268.20-1.60 271.05-3.50Q273.90-5.40 276.15-8.30Q278.40-11.20 280-14.20Q281.60-17.20 282.50-19.30L282.50-19.30Q283.70-19.30 283.70-18.40L283.70-18.40Q282.40-15.60 280.75-12.30Q279.10-9 276.85-6.15Q274.60-3.30 271.45-1.45Q268.30 0.40 264.10 0.40ZM262.30-17.20L262.30-17.20Q263.70-17.20 267-18.25Q270.30-19.30 273-21.60L273-21.60Q275.60-23.90 277-26.65Q278.40-29.40 278.40-31.30L278.40-31.30Q278.40-33.50 276.80-33.50L276.80-33.50Q275.60-33.50 273.50-31.90Q271.40-30.30 268.30-26.50L268.30-26.50Q266.40-24.10 264.70-21.30Q263-18.50 262.30-17.20Z" class="letter-6"/></g>
<g><path d="M282.60-19.60L282.60-19.60Q283.40-21.30 284.70-25.05Q286-28.80 287.40-33.40Q288.80-38 289.50-42.10L289.50-42.10Q289.80-43.70 290.60-44.45Q291.40-45.20 292.30-45.20L292.30-45.20Q293.60-45.20 294.70-43.95Q295.80-42.70 295.80-40.40L295.80-40.40Q295.80-37.60 294.15-35.60Q292.50-33.60 290.10-31.80L290.10-31.80Q291.10-31.70 292.20-31.65Q293.30-31.60 294.60-31.60L294.60-31.60Q299.30-31.60 303.90-32.20L303.90-32.20Q304.10-31.60 304.10-31.30L304.10-31.30Q304.10-30 303.35-28Q302.60-26 301.80-24.40L301.80-24.40Q301.40-23.50 300.20-21.15Q299-18.80 297.60-15.85Q296.20-12.90 295.25-10.05Q294.30-7.20 294.30-5.20L294.30-5.20Q294.30-2.60 296.30-2.60L296.30-2.60Q298.20-2.60 301.60-7.05Q305-11.50 308.40-19.30L308.40-19.30Q309.60-19.30 309.60-18.40L309.60-18.40Q308.50-15.70 306.85-12.50Q305.20-9.30 303.20-6.45Q301.20-3.60 298.90-1.75Q296.60 0.10 294.10 0.10L294.10 0.10Q292.20 0.10 290.30-1.45Q288.40-3 288.40-6.50L288.40-6.50Q288.40-9.60 289.60-12.55Q290.80-15.50 292.30-18.10Q293.80-20.70 295-22.70Q296.20-24.70 296.20-25.90L296.20-25.90Q296.20-27.70 293.95-28.50Q291.70-29.30 288.10-29.40L288.10-29.40Q286.30-24.80 285.40-22.60Q284.50-20.40 283.70-18.40L283.70-18.40Q282.10-18.40 282.60-19.60Z" class="letter-7"/></g>
</svg>